<?xml version="1.0" standalone="no"?>
<!DOCTYPE svg PUBLIC "-//W3C//DTD SVG 20010904//EN"
 "http://www.w3.org/TR/2001/REC-SVG-20010904/DTD/svg10.dtd">
<svg version="1.0" xmlns="http://www.w3.org/2000/svg"
 width="170.000000pt" height="170.000000pt" viewBox="0 0 170.000000 170.000000"
 preserveAspectRatio="xMidYMid meet">
<metadata>
Created by potrace 1.11, written by Peter Selinger 2001-2013
</metadata>
<g transform="translate(0.000000,170.000000) scale(0.100000,-0.100000)"
fill="#000000" stroke="none">
<path d="M725 1633 c-16 -2 -64 -13 -105 -25 -374 -102 -618 -422 -605 -792 2
-50 8 -109 13 -131 6 -22 15 -56 20 -76 5 -20 21 -62 35 -93 132 -288 433
-474 767 -474 73 0 113 4 200 22 68 13 208 71 264 108 116 77 231 201 273 296
10 20 22 44 28 52 13 17 50 142 61 205 24 136 -8 331 -76 465 -58 114 -160
232 -254 294 -70 46 -166 98 -166 90 0 -4 -6 -2 -12 4 -7 5 -49 20 -93 32 -77
22 -268 34 -350 23z"/>
</g>
</svg>
