<?xml version="1.0" standalone="no"?>
<!DOCTYPE svg PUBLIC "-//W3C//DTD SVG 20010904//EN"
 "http://www.w3.org/TR/2001/REC-SVG-20010904/DTD/svg10.dtd">
<svg version="1.0" xmlns="http://www.w3.org/2000/svg"
 width="256.000000pt" height="256.000000pt" viewBox="0 0 256.000000 256.000000"
 preserveAspectRatio="xMidYMid meet">
<metadata>
Created by potrace 1.11, written by Peter Selinger 2001-2013
</metadata>
<g transform="translate(0.000000,256.000000) scale(0.100000,-0.100000)"
fill="#000000" stroke="none">
<path d="M1130 2411 c-204 -29 -383 -177 -446 -367 -18 -56 -19 -96 -19 -774
0 -678 1 -718 19 -774 53 -159 194 -297 361 -349 61 -19 92 -22 240 -22 136 0
182 4 230 19 188 57 324 193 382 381 17 56 18 108 18 745 0 637 -1 689 -18
745 -57 186 -195 325 -377 380 -63 19 -301 29 -390 16z"/>
</g>
</svg>
