<svg version="1" xmlns="http://www.w3.org/2000/svg" width="1333.333" height="1333.333" viewBox="0 0 1000.000000 1000.000000"><path d="M472.8 35.5c-.2.2-4.4.7-9.3 1-4.9.3-10.2.8-11.9 1-1.7.3-5.7.7-9 1-3.2.3-6.1.7-6.5.9-.3.2-3.1.7-6.1 1-3 .4-6.2.8-7 1-.8.1-3.7.7-6.5 1.1-2.7.5-5.2 1-5.5 1-.3.1-2.3.5-4.5 1-2.2.4-4.9 1-6 1.2-1.1.2-3.1.6-4.4.9-1.4.3-2.8.7-3.1.9-.4.2-2 .6-3.6.9-1.6.3-9.2 2.4-16.9 4.6-7.7 2.2-14.7 4.2-15.5 4.5-.8.2-1.6.4-1.7.5-.2.2-.7.4-1.3.5-.5.1-1.2.4-1.5.5-.3.1-.8.3-1.2.5-.5.1-1.5.4-2.3.7-.8.3-3.7 1.3-6.5 2.3-2.7.9-6.4 2.3-8.2 3.1-1.7.8-3.4 1.4-3.7 1.4-.4 0-2.3.7-4.4 1.7-2 .9-3.9 1.7-4.2 1.8-8.9 3.1-46.9 21.6-49.8 24.2-.7.7-2 1.3-2.8 1.3-.8 0-1.4.3-1.4.8 0 .4-1.3 1.3-2.9 2-2.9 1.3-7.3 4-19.9 12.3-4.1 2.7-7.8 4.9-8.2 4.9-.5 0-1 .4-1.2.8-.1.5-2.5 2.3-5.3 4.2-2.7 1.9-5.6 4-6.3 4.7-.7.7-2.6 2-4.2 3-1.7.9-3 2.1-3 2.5 0 .4-.4.8-1 .8-.5 0-2 1-3.4 2.2-1.3 1.3-3.9 3.4-5.6 4.8-1.8 1.4-3.8 2.9-4.4 3.5-.6.5-4.3 3.7-8.1 7-8.4 7.2-21.6 19.8-29.4 27.9-10.7 11.3-11.8 12.5-16.2 17.8-2.4 2.9-4.8 5.8-5.4 6.4-.5.6-2.3 2.8-4 4.9-1.6 2.1-3.5 4.3-4.1 4.9-5.3 5.5-36.4 50.9-36.4 53.2 0 .2-1.1 2.2-2.4 4.3-3.4 5.3-17.5 33.1-21 41.1-1.5 3.6-3.4 7.8-4.1 9.5-2.8 6.2-11.3 28.3-11.9 31-.1.5-1.7 5.7-3.5 11.5-1.9 5.8-3.4 10.7-3.4 11 0 .3-.7 2.5-1.4 5-1.6 5.3-7.1 29-7.9 33.9-.3 1.8-.8 4.3-1 5.5-.2 1.1-.9 5-1.4 8.6-.6 3.6-1.3 7.6-1.5 8.9-.2 1.4-.7 5-1 8-.3 3.1-.8 6.9-1 8.6-2.6 21.1-2.7 82.7 0 96.5.2 1.2.7 5 .9 8.4.3 3.3 1 8.4 1.5 11.3.6 2.9 1.3 7.4 1.7 10 .3 2.6 1 6.8 1.6 9.3.5 2.5 1.2 5.8 1.5 7.5 1.7 11.1 15.2 57.5 20.1 69.5.5 1.4 2 4.8 3.1 7.7 1.2 2.8 2.6 6.4 3.3 8 .6 1.5 1.2 3 1.3 3.3 1.4 4 15.8 33.5 20.9 42.8 3 5.3 6.7 11.5 12.9 21.7 2.3 3.7 7.7 12 8.5 13 .8 1 8.5 11.9 11.2 15.9 1.8 2.8 13.8 17.9 16.5 21 1.1 1.3 4.3 5 7 8.2 6.5 7.7 37.3 38.5 44.9 44.9 3.2 2.8 6.4 5.5 7 6 .6.6 4 3.3 7.5 6 3.5 2.8 7.2 5.8 8.2 6.8 1.1.9 2.4 1.7 2.9 1.7.6 0 1 .4 1 1 0 .5.6 1 1.4 1 .8 0 1.6.4 1.8.8.2.4 3.5 3 7.3 5.7 3.9 2.7 7.2 5.3 7.3 5.7.2.5.8.8 1.3.8s3.1 1.5 5.7 3.2c5.9 4.1 7.8 5.2 12.2 7.8 1.9 1.1 4.9 2.9 6.5 3.9 9.7 6 43.6 23.5 45.6 23.6.3 0 3.3 1.2 6.5 2.7 9.1 4.1 25.7 10.6 28.6 11.2 1.4.2 3.4.9 4.4 1.5 4.1 2.2 45.9 13.8 55.9 15.5 1.7.2 5.5.9 8.5 1.5s6.9 1.3 8.5 1.5c1.7.3 4.5.8 6.3 1.1 7 1.1 8.7 1.4 22.6 3 12.7 1.5 25 2 48.6 2 28.7-.1 42.9-.9 60.3-3.5 3.7-.6 8.6-1.2 11-1.5 2.3-.3 8.7-1.4 14.2-2.5 5.5-1 11.1-2.1 12.5-2.3 1.4-.3 4.5-1 7-1.7s5.2-1.3 6-1.5c.8-.2 4.2-1 7.5-1.9 3.3-.9 7.1-1.9 8.5-2.2 3.9-.8 38-12.4 42.5-14.4 2.3-1 5.3-2.2 6.8-2.5 1.5-.4 2.7-1.2 2.7-1.8 0-.6.3-.7.6-.4.4.3 1.6.1 2.8-.5 1.1-.7 2.6-1.3 3.2-1.4 1.6-.3 36.8-17.6 37.4-18.4.3-.3 2.3-1.4 4.5-2.4 2.2-1.1 4.2-2.2 4.5-2.5.3-.3 1.6-1.2 2.9-1.9 1.3-.8 4-2.3 6-3.4s4.7-2.9 6-3.9c1.3-1.1 2.9-1.9 3.7-1.9.7 0 1.4-.3 1.6-.8.5-1 9.7-7.2 10.8-7.2.6 0 1-.4 1-.8s1.3-1.6 3-2.5c1.6-1 3.5-2.3 4.2-3 .7-.7 3.1-2.4 5.4-4 2.2-1.5 5-3.6 6.2-4.8 1.2-1.1 2.2-1.7 2.2-1.4 0 .3.8-.3 1.8-1.2 1.1-1 3.9-3.4 6.3-5.3s5-4.3 5.8-5.3c.9-.9 1.9-1.7 2.3-1.7 1 0 10.4-8.6 25.4-23 6.3-6.1 20.7-21.6 26.5-28.5 5.2-6.1 7.3-8.6 8.4-9.9.6-.6 2.3-2.9 3.9-5.1 1.7-2.2 3.3-4.2 3.6-4.5.3-.3 1.7-2.1 3-4s2.7-3.7 3-4c1.1-1.1 19.4-27.9 20.1-29.7.2-.4 2-3.4 3.9-6.6 6.6-11 8.9-15.3 16.8-31.2 9-18.1 11-22.4 15.4-33.3 3.4-8.5 8.7-22.9 9.4-25.2.2-.8 2.4-8.2 4.9-16.4 4.1-13.4 9.7-35.6 11-43.9.3-1.8 1-5.5 1.5-8.2.5-2.8 1.2-6.8 1.5-9 .3-2.3.7-5 .9-6 .2-1.1.7-4.7 1.1-8 .3-3.3.8-7.4 1-9 2.6-20.8 2.6-79.6 0-97.5-.2-1.4-.6-4.5-.9-7-.9-7.6-1.6-12.5-2.1-15-.3-1.3-.7-4.2-1-6.5-.7-5.2-4.3-22.9-5.7-28-.5-2.2-1.2-4.9-1.4-6-.2-1.1-2-7.6-3.9-14.5-2-6.9-3.8-13.2-4-14-1.3-5.3-10.1-28.9-14.9-40.5-3.8-8.9-19.1-40.2-22.5-46-1-1.7-3-5.3-4.5-8-1.6-2.8-3.7-6.2-4.7-7.7-1.1-1.4-1.9-2.9-1.9-3.2 0-.4-.5-1.2-1-1.9-1-1.2-12.6-18.4-14.5-21.6-.5-.9-1.2-1.8-1.5-2.1-.3-.3-2.3-3-4.5-6s-4.4-6-5-6.7c-.5-.6-2.1-2.6-3.5-4.4-1.4-1.8-3.2-4-4.1-4.9-.8-.9-2.2-2.6-3-3.7-2.1-3.1-11.5-13.7-18.2-20.7-3.2-3.4-7.3-7.7-9.1-9.6-1.8-1.9-7.9-7.8-13.6-13-5.6-5.2-11.5-10.7-13-12.1-1.5-1.4-4.3-3.6-6.1-5-1.9-1.3-3.8-2.9-4.4-3.5-.5-.7-6.8-5.5-14-10.8-7.1-5.3-13.5-10-14.1-10.5-3-2.5-26.6-17.4-30.9-19.6-1.6-.9-4.8-2.7-7-4C721 90.6 681.2 71 679.6 71c-.2 0-2.1-.8-4.2-1.7-2.2-.9-4.2-1.8-4.6-1.9-.5-.1-1-.3-1.3-.4-.3-.1-.8-.3-1.2-.5-.5-.1-2.1-.7-3.8-1.4-7.1-3.1-37-12.4-49.4-15.6-12.6-3.1-35-7.8-43.1-8.9-1.9-.3-5.3-.8-7.5-1.1-2.2-.3-5.3-.7-7-1-1.6-.2-6.6-.7-11-1-4.4-.4-9.1-.9-10.5-1.2-2.9-.6-62.6-1.4-63.2-.8z"/></svg>
